<svg xmlns="http://www.w3.org/2000/svg" viewBox="0 0 40 40"><path fill="#000" stroke="#fff" d="M26.29,29.21a12.58,12.58,0,0,0,5.82-10.69C32.11,9.53,26.69,6,20,6A12.26,12.26,0,0,0,7.89,18.52C7.89,25.44,11.48,31,20,31a11.71,11.71,0,0,0,2.79-.33h0a6.71,6.71,0,0,0,3.41,3,5.61,5.61,0,0,0,3.61-.08l-.39-2.24A3.26,3.26,0,0,1,26.29,29.21ZM13.7,18.54c0-6.37,2.82-9.33,6.3-9.33s6.3,2.19,6.3,9.33c0,2.93-.45,5.54-1.74,7.25-2.06-3.22-6.28-2.06-6.28-2.06l.26,2.06a3.41,3.41,0,0,1,3.09,1.91,6.9,6.9,0,0,1-1.63.18C14.64,27.88,13.7,23.7,13.7,18.54Z"/></svg>