<svg xmlns="http://www.w3.org/2000/svg" fill-rule="evenodd" stroke-linejoin="round" stroke-miterlimit="2" clip-rule="evenodd" viewBox="0 0 24 24"><g transform="translate(-40 -40)"><rect width="24" height="24" x="40" y="40" fill="none"/><path fill="#2c2c2c" d="M378.587,202.413C378.666,200.988 379.049,199.607 379.726,198.309C381.791,194.35 386.369,192.296 390.609,193.418C394.539,194.457 397.436,197.91 397.812,202.017C398.1,205.174 397.135,207.908 394.948,210.145C394.805,210.292 394.656,210.43 394.502,210.564C394.657,210.644 394.835,210.718 395.041,210.79L395.039,210.79C395.418,210.923 396.013,211.382 396.033,212.076C396.042,212.443 396.042,212.809 396.04,213.176L396.04,213.93C396.04,214.425 395.641,214.826 395.147,214.83C395.147,214.83 393.432,214.842 393.048,214.834C392.881,214.83 392.781,214.804 392.755,214.798C392.627,214.762 391.719,214.537 391.4,214.398C390.573,214.038 389.992,213.433 389.585,212.862C388.571,213.01 387.55,212.994 386.529,212.814C382.552,212.112 379.252,208.666 378.689,204.616C378.653,204.361 378.624,204.105 378.595,203.849L378.55,203.44C378.546,203.399 378.544,203.357 378.545,203.316L378.567,202.558L378.587,202.413ZM394.239,212.412C393.569,212.154 393.106,211.858 392.739,211.49C392.617,211.368 392.502,211.224 392.393,211.077C392.107,210.69 392.176,210.147 392.548,209.844C392.623,209.783 392.696,209.723 392.769,209.664C393.086,209.409 393.385,209.169 393.661,208.887C395.465,207.041 396.257,204.785 396.019,202.181C395.713,198.83 393.356,196.006 390.149,195.158C386.708,194.248 382.998,195.928 381.322,199.141C380.763,200.212 380.447,201.351 380.383,202.524C380.38,202.577 380.374,202.629 380.364,202.681L380.346,203.306L380.384,203.648C380.411,203.887 380.438,204.127 380.472,204.367C380.93,207.662 383.607,210.47 386.841,211.041C387.841,211.217 388.841,211.201 389.831,210.99C390.212,210.909 390.603,211.083 390.798,211.421C391.046,211.85 391.433,212.449 392.119,212.748C392.334,212.841 392.878,212.974 393.122,213.034L393.567,213.037L394.24,213.035L394.239,212.412ZM389.619,210.65C389.165,210.789 388.717,210.858 388.271,210.858C387.821,210.858 387.372,210.788 386.918,210.647C385.483,210.202 384.381,209.256 383.579,207.726C383.024,206.667 382.741,205.509 382.743,204.283C382.743,204.009 382.739,203.734 382.736,203.46C382.727,202.772 382.718,202.06 382.766,201.356C382.911,199.222 383.76,197.547 385.256,196.363C387.257,194.779 389.937,194.939 391.771,196.763C392.99,197.974 393.659,199.441 393.765,201.12L393.765,201.12C393.841,202.333 393.842,203.617 393.765,205.045C393.694,206.383 393.7,206.88 393.125,207.658L392.876,207.996C392.814,208.08 392.737,208.152 392.65,208.21L391.978,208.657C391.623,208.894 391.151,208.848 390.847,208.548C390.098,207.808 389.895,207.6 389.478,207.101L389.036,207.491L389.802,208.788L390.036,209.168C390.126,209.264 390.196,209.381 390.238,209.515C390.385,209.989 390.121,210.493 389.647,210.641L389.619,210.65ZM391.968,201.233C391.891,200.002 391.396,198.928 390.502,198.039C389.339,196.883 387.641,196.77 386.373,197.774C385.267,198.649 384.669,199.901 384.562,201.478C384.517,202.133 384.527,202.796 384.536,203.437C384.539,203.72 384.543,204.004 384.543,204.286C384.542,205.213 384.753,206.089 385.173,206.89C385.726,207.944 386.463,208.621 387.452,208.928C387.585,208.97 387.718,209.001 387.851,209.023L387.108,207.765C386.889,207.394 386.964,206.919 387.288,206.633L388.983,205.136C389.166,204.975 389.407,204.895 389.65,204.914C389.893,204.933 390.118,205.05 390.273,205.239C390.946,206.054 391.102,206.253 391.573,206.73L391.677,206.589C392.033,206.107 391.923,205.777 391.968,204.949C392.04,203.596 392.041,202.381 391.968,201.233Z" transform="translate(-336 -152)"/></g></svg>